<svg width="267" height="204" viewBox="0 0 267 204" fill="none" xmlns="http://www.w3.org/2000/svg">
<path d="M27.6 2.74C28.095 2.18 29.06 1.335 29.75 0.86C30.46 0.37 31.92 0 33.125 0C34.295 0.005 36.94 0.57 39 1.255C41.065 1.945 44.945 3.615 47.625 4.97C50.305 6.33 54.44 8.635 56.815 10.095C59.19 11.56 62.9 13.985 65.065 15.485C67.23 16.985 71.81 20.475 75.25 23.235C78.685 25.995 85.1 31.84 97.5 44.18L99.5 43.65C100.6 43.36 103.635 42.55 106.25 41.845C108.865 41.145 112.465 40.325 114.25 40.025C116.035 39.73 120.2 39.155 123.5 38.755C126.8 38.355 131.19 38.02 133.25 38.02C135.315 38.015 139.7 38.34 143 38.74C146.3 39.14 150.8 39.805 153 40.22C155.2 40.635 158.69 41.45 160.75 42.03C162.815 42.61 165.455 43.35 168.75 44.255L177.375 35.725C182.12 31.035 187.8 25.73 190 23.94C192.2 22.15 195.8 19.325 198 17.665C200.2 16.005 204.25 13.18 207 11.39C209.75 9.6 214.475 6.885 217.5 5.35C220.525 3.82 224.745 1.99 226.875 1.285C229.005 0.58 231.65 0.005 232.75 0.005C233.85 0.005 235.37 0.315 236.125 0.69C236.88 1.07 238.095 2.14 238.825 3.065C239.555 3.995 240.815 6.22 241.625 8.005C242.435 9.795 243.795 13.395 244.645 16.005C245.5 18.62 246.785 23.12 247.505 26.005C248.225 28.895 249.04 32.72 249.315 34.505C249.59 36.29 250.03 39.555 250.295 41.755C250.56 43.955 250.91 50.48 251.075 56.255C251.26 62.94 251.155 68.57 250.785 71.755C250.47 74.505 249.98 78.33 249.7 80.255C249.42 82.18 248.965 84.995 248.685 86.505C248.4 88.015 247.345 92.675 244.5 104.445L247.65 111.1C249.385 114.76 251.08 118.32 251.42 119.005C251.91 120 252.51 120.305 254.365 120.505C255.645 120.64 256.94 120.98 257.245 121.255C257.55 121.53 257.735 122.32 257.65 123.005C257.53 124.01 257.16 124.305 255.75 124.51C254.065 124.755 254.005 124.84 254.085 126.76C254.135 127.855 254.415 129.375 254.71 130.13C255.1 131.125 255.7 131.585 256.875 131.785C257.77 131.94 259.135 132.335 259.915 132.66C261.01 133.12 261.29 133.53 261.165 134.485C261.03 135.48 260.57 135.82 258.75 136.27C256.6 136.805 256.505 136.905 256.595 138.54C256.645 139.485 256.925 140.875 257.22 141.63C257.675 142.81 258.125 143.055 260.375 143.36C261.82 143.555 263.42 144.065 263.935 144.485C264.57 145.01 264.77 145.615 264.56 146.38C264.28 147.39 263.9 147.52 257.5 147.755L257.675 151.005C257.77 152.79 258.105 154.425 258.425 154.63C258.74 154.835 260.2 155.4 261.665 155.88C263.13 156.36 264.93 157.245 265.665 157.845C266.76 158.745 266.9 159.1 266.45 159.845C266.145 160.345 265.36 160.83 264.7 160.92C264.04 161.01 262.6 160.72 261.5 160.28C260.4 159.84 259.105 159.485 258.625 159.495C258.145 159.5 257.635 159.955 257.5 160.505C257.365 161.055 257.08 161.51 256.875 161.515C256.67 161.52 255.26 160.86 253.75 160.055C252.24 159.245 248.975 158.005 246.5 157.29C243.385 156.395 240.805 156 238.125 156C235.995 156.005 232.79 156.345 231 156.755C229.21 157.165 227.13 157.76 226.375 158.075C225.62 158.39 223.99 159.09 222.75 159.635C221.51 160.18 219.6 161.245 218.5 161.995C217.4 162.745 215.4 164.46 214.055 165.81C212.705 167.155 210.92 169.265 210.08 170.505C209.24 171.745 207.955 174.105 207.22 175.755C206.29 177.84 205.52 178.865 204.69 179.125C204.035 179.325 171.38 179.495 132.125 179.5C64.595 179.505 60.735 179.46 60.44 178.63C60.275 178.15 59.52 176.405 58.77 174.755C58.02 173.105 56.32 170.405 54.995 168.755C53.67 167.105 51.44 164.785 50.045 163.595C48.645 162.405 45.7 160.57 43.5 159.515C41.3 158.46 37.87 157.235 35.875 156.8C33.88 156.365 30.675 156.005 28.75 156.005C26.825 156.005 23.62 156.365 21.625 156.8C19.63 157.235 16.145 158.475 13.875 159.55C11.605 160.625 9.525 161.39 9.25 161.255C8.975 161.12 8.75 160.665 8.75 160.255C8.75 159.845 8.415 159.505 8 159.505C7.585 159.505 6.18 159.86 4.875 160.29C3.57 160.72 1.94 161 1.25 160.915C0.235 160.785 0 160.475 0 159.28C0 157.96 0.29 157.69 2.75 156.7C4.265 156.09 6.225 155.295 7.11 154.925C8.58 154.315 8.735 154.035 8.885 151.755C8.975 150.38 8.98 148.86 8.9 148.38C8.775 147.665 8.14 147.48 5.375 147.38C2.44 147.27 1.98 147.125 1.84 146.255C1.75 145.705 2.075 144.915 2.56 144.505C3.04 144.095 4.69 143.52 9 142.71L9.66 140.23C10.025 138.87 10.195 137.475 10.035 137.13C9.88 136.785 9.13 136.515 8.375 136.525C7.62 136.54 6.44 136.1 5.75 135.56C4.725 134.75 4.6 134.405 5.05 133.66C5.365 133.145 6.865 132.43 8.535 132.005C11.31 131.295 11.5 131.15 12.07 129.255C12.4 128.155 12.69 126.75 12.71 126.13C12.74 125.245 12.405 124.94 11.125 124.695C10.23 124.53 9.21 124.135 8.855 123.82C8.495 123.51 8.215 122.86 8.23 122.38C8.24 121.9 8.7 121.28 9.25 121.005C9.8 120.73 11.15 120.505 12.25 120.505C14.155 120.505 14.3 120.395 15.29 118.13C15.865 116.825 17.55 113.225 21.75 104.505L20.27 98.63C19.455 95.4 18.345 90.39 17.81 87.505C17.27 84.62 16.53 80.23 16.165 77.755C15.73 74.82 15.505 68.295 15.51 59.005C15.515 47.865 15.715 43.5 16.41 39.005C16.9 35.845 17.87 30.665 18.57 27.505C19.27 24.345 20.635 19.28 21.61 16.255C22.58 13.23 24.125 9.18 25.04 7.255C25.955 5.33 27.105 3.3 27.6 2.74Z" fill="#010101"/>
<path d="M18.75 162.495C20.265 161.97 22.065 161.435 22.75 161.31C23.44 161.18 26.7 161.15 30 161.24C35.17 161.38 36.45 161.59 39.25 162.76C41.035 163.505 43.72 164.935 45.205 165.935C46.695 166.935 49.025 168.995 50.38 170.505C51.74 172.02 53.56 174.71 54.425 176.495C55.905 179.53 56 180.075 56 185.28C56 190.595 55.935 190.935 54.475 193.29C53.64 194.645 51.84 196.595 50.475 197.62C48.81 198.875 47.265 199.58 45.75 199.775C44.22 199.975 43.295 199.855 42.855 199.41C42.495 199.05 42.22 197.97 42.235 197.005C42.255 196.045 42.04 194.525 41.76 193.63C41.48 192.735 40.91 192.005 40.5 192.005C39.935 192.005 39.815 192.405 40.005 193.63C40.15 194.525 40.365 195.82 40.49 196.505C40.615 197.195 40.5 198.485 40.235 199.38C39.965 200.275 39.02 201.56 38.125 202.24C36.935 203.145 35.865 203.48 34.125 203.49C32.405 203.5 31.475 203.23 30.75 202.505C30.03 201.785 29.75 200.845 29.755 199.13C29.76 197.825 29.59 196.015 29.38 195.105C29.135 194.05 28.74 193.51 28.275 193.605C27.715 193.72 27.545 194.665 27.525 197.675C27.5 201.245 27.39 201.68 26.25 202.57C25.565 203.11 24.27 203.54 23.375 203.525C22.48 203.515 21.075 203.17 20.25 202.755C19.425 202.345 18.305 201.275 17.765 200.38C17.225 199.485 16.77 198.08 16.755 197.255C16.745 196.43 16.455 194.905 16.115 193.87C15.78 192.83 15.22 191.985 14.875 191.995C14.53 192 14.25 192.4 14.25 192.88C14.25 193.36 14.47 194.545 14.74 195.505C15.01 196.47 15.12 197.705 14.985 198.255C14.85 198.805 14.235 199.405 13.62 199.585C13.005 199.765 11.715 199.68 10.75 199.39C9.785 199.1 7.86 197.715 6.46 196.31C4.725 194.56 3.565 192.805 2.795 190.755C1.86 188.27 1.695 186.98 1.835 183.255C1.975 179.375 2.23 178.27 3.675 175.255C4.76 172.99 6.35 170.775 8.175 168.98C9.73 167.455 12.125 165.59 13.5 164.83C14.875 164.075 17.235 163.02 18.75 162.495Z" fill="#010101"/>
<path d="M224.25 164.135C226.04 163.27 228.74 162.22 230.25 161.815C231.76 161.405 235.135 161.06 237.75 161.045C240.53 161.035 243.745 161.35 245.5 161.805C247.15 162.24 250.075 163.415 252 164.425C253.925 165.43 256.745 167.495 258.27 169.005C259.855 170.58 261.73 173.145 262.66 175.005C263.595 176.885 264.47 179.625 264.735 181.505C265.03 183.605 265.005 185.725 264.67 187.505C264.385 189.02 263.72 191.1 263.2 192.13C262.675 193.16 261.405 194.925 260.375 196.055C259.345 197.18 257.825 198.415 257 198.795C256.175 199.175 255.05 199.525 254.5 199.575C253.95 199.625 253.05 199.63 252.5 199.59C251.56 199.52 251.52 199.29 251.875 195.76C252.19 192.59 252.135 192.005 251.5 192.005C251.085 192.005 250.65 192.4 250.53 192.88C250.405 193.36 250.15 194.88 249.965 196.255C249.775 197.63 249.31 199.375 248.935 200.13C248.56 200.885 247.52 201.95 246.625 202.49C245.73 203.03 244.21 203.485 243.25 203.495C242.29 203.505 240.995 203.175 240.375 202.76C239.755 202.345 239.045 201.275 238.79 200.38C238.495 199.335 238.525 198.13 238.865 197.005C239.155 196.045 239.25 194.86 239.075 194.38C238.895 193.9 238.47 193.5 238.125 193.495C237.78 193.485 237.33 194.22 237.12 195.12C236.91 196.02 236.74 197.935 236.745 199.38C236.75 201.55 236.555 202.135 235.625 202.76C235.005 203.175 233.655 203.51 232.625 203.51C231.595 203.505 230.13 203.195 229.375 202.82C228.62 202.445 227.575 201.49 227.055 200.695C226.25 199.475 226.155 198.7 226.43 195.63C226.605 193.635 226.58 191.995 226.375 191.985C226.17 191.97 225.725 192.25 225.385 192.61C225.05 192.965 224.54 194.605 224.255 196.255C223.97 197.905 223.46 199.43 223.12 199.65C222.78 199.865 221.71 199.92 220.75 199.775C219.79 199.63 218 198.895 216.78 198.135C215.555 197.375 213.81 195.8 212.905 194.63C211.995 193.46 211 191.55 210.695 190.38C210.39 189.21 210.235 186.345 210.35 184.005C210.525 180.48 210.845 179.16 212.235 176.255C213.42 173.775 214.945 171.73 217.455 169.235C219.77 166.94 222.13 165.17 224.25 164.135Z" fill="#010101"/>
</svg>
