<svg width="20" height="15" viewBox="0 0 20 15" fill="none" xmlns="http://www.w3.org/2000/svg">
<path d="M1.73078 2.33206C2.66078 1.58206 4.21078 0.762062 5.17578 0.512062C6.14078 0.262062 7.99578 0.0320636 9.30078 0.00206364C10.6058 -0.0229364 12.6308 0.182063 13.8008 0.462063C14.9708 0.742063 16.6508 1.58706 17.5358 2.33706C18.4208 3.08706 19.2708 4.26706 19.4208 4.95206C19.5958 5.74206 19.3258 6.80206 18.6858 7.82706C18.1308 8.72206 16.9658 9.84706 16.0908 10.3271C15.2208 10.8071 13.7058 11.9271 12.7158 12.8071C11.7308 13.6921 10.3608 14.4271 9.67578 14.4471C8.92078 14.4721 7.72078 13.8321 6.64578 12.8421C5.67078 11.9421 4.15078 10.8071 3.27078 10.3271C2.39578 9.84706 1.29078 8.83206 0.820782 8.07706C0.350782 7.32206 -0.0192258 6.02706 0.000774176 5.20206C0.0257742 4.12206 0.510777 3.31706 1.73078 2.33206Z" fill="#FEFEFE"/>
</svg>
